<mxfile host="app.diagrams.net" agent="Mozilla/5.0 (Windows NT 10.0; Win64; x64) AppleWebKit/537.36 (KHTML, like Gecko) Chrome/131.0.0.0 Safari/537.36 Edg/131.0.0.0" version="25.0.1">
  <diagram name="1 oldal" id="224zJ8F6GQHKKyZuaNeM">
    <mxGraphModel dx="1483" dy="786" grid="1" gridSize="10" guides="1" tooltips="1" connect="1" arrows="1" fold="1" page="1" pageScale="1" pageWidth="827" pageHeight="1169" math="0" shadow="0">
      <root>
        <mxCell id="0" />
        <mxCell id="1" parent="0" />
        <mxCell id="9sos-i2Oqbk3pr7V04AQ-1" value="BB_orarend" style="ellipse;whiteSpace=wrap;html=1;" vertex="1" parent="1">
          <mxGeometry x="360" y="40" width="120" height="80" as="geometry" />
        </mxCell>
        <mxCell id="9sos-i2Oqbk3pr7V04AQ-2" value="ora" style="ellipse;whiteSpace=wrap;html=1;" vertex="1" parent="1">
          <mxGeometry x="360" y="160" width="120" height="80" as="geometry" />
        </mxCell>
        <mxCell id="9sos-i2Oqbk3pr7V04AQ-3" value="ora" style="ellipse;whiteSpace=wrap;html=1;" vertex="1" parent="1">
          <mxGeometry x="375" y="170" width="90" height="60" as="geometry" />
        </mxCell>
        <mxCell id="9sos-i2Oqbk3pr7V04AQ-4" value="targy" style="ellipse;whiteSpace=wrap;html=1;" vertex="1" parent="1">
          <mxGeometry x="230" y="390" width="120" height="80" as="geometry" />
        </mxCell>
        <mxCell id="9sos-i2Oqbk3pr7V04AQ-5" value="idopont" style="ellipse;whiteSpace=wrap;html=1;" vertex="1" parent="1">
          <mxGeometry x="360" y="420" width="120" height="80" as="geometry" />
        </mxCell>
        <mxCell id="9sos-i2Oqbk3pr7V04AQ-7" value="oktato" style="ellipse;whiteSpace=wrap;html=1;" vertex="1" parent="1">
          <mxGeometry x="610" y="330" width="120" height="80" as="geometry" />
        </mxCell>
        <mxCell id="9sos-i2Oqbk3pr7V04AQ-8" value="szak" style="ellipse;whiteSpace=wrap;html=1;" vertex="1" parent="1">
          <mxGeometry x="700" y="250" width="120" height="80" as="geometry" />
        </mxCell>
        <mxCell id="9sos-i2Oqbk3pr7V04AQ-9" value="helyszin" style="ellipse;whiteSpace=wrap;html=1;" vertex="1" parent="1">
          <mxGeometry x="490" y="400" width="120" height="80" as="geometry" />
        </mxCell>
        <mxCell id="9sos-i2Oqbk3pr7V04AQ-10" value="id" style="rhombus;whiteSpace=wrap;html=1;" vertex="1" parent="1">
          <mxGeometry x="60" y="280" width="80" height="80" as="geometry" />
        </mxCell>
        <mxCell id="9sos-i2Oqbk3pr7V04AQ-11" value="nap" style="ellipse;whiteSpace=wrap;html=1;" vertex="1" parent="1">
          <mxGeometry x="230" y="560" width="120" height="80" as="geometry" />
        </mxCell>
        <mxCell id="9sos-i2Oqbk3pr7V04AQ-12" value="tol" style="ellipse;whiteSpace=wrap;html=1;" vertex="1" parent="1">
          <mxGeometry x="354" y="610" width="120" height="80" as="geometry" />
        </mxCell>
        <mxCell id="9sos-i2Oqbk3pr7V04AQ-13" value="ig" style="ellipse;whiteSpace=wrap;html=1;" vertex="1" parent="1">
          <mxGeometry x="490" y="560" width="120" height="80" as="geometry" />
        </mxCell>
        <mxCell id="9sos-i2Oqbk3pr7V04AQ-14" value="tipus" style="ellipse;whiteSpace=wrap;html=1;" vertex="1" parent="1">
          <mxGeometry x="120" y="340" width="120" height="80" as="geometry" />
        </mxCell>
        <mxCell id="9sos-i2Oqbk3pr7V04AQ-15" value="" style="endArrow=none;html=1;rounded=0;entryX=0.5;entryY=1;entryDx=0;entryDy=0;" edge="1" parent="1" target="9sos-i2Oqbk3pr7V04AQ-1">
          <mxGeometry width="50" height="50" relative="1" as="geometry">
            <mxPoint x="420" y="160" as="sourcePoint" />
            <mxPoint x="440" y="380" as="targetPoint" />
          </mxGeometry>
        </mxCell>
        <mxCell id="9sos-i2Oqbk3pr7V04AQ-16" value="" style="endArrow=none;html=1;rounded=0;entryX=-0.017;entryY=0.413;entryDx=0;entryDy=0;entryPerimeter=0;exitX=0.5;exitY=0;exitDx=0;exitDy=0;" edge="1" parent="1" source="9sos-i2Oqbk3pr7V04AQ-10" target="9sos-i2Oqbk3pr7V04AQ-2">
          <mxGeometry width="50" height="50" relative="1" as="geometry">
            <mxPoint x="390" y="430" as="sourcePoint" />
            <mxPoint x="440" y="380" as="targetPoint" />
          </mxGeometry>
        </mxCell>
        <mxCell id="9sos-i2Oqbk3pr7V04AQ-17" value="" style="endArrow=none;html=1;rounded=0;entryX=0;entryY=1;entryDx=0;entryDy=0;exitX=0.5;exitY=0;exitDx=0;exitDy=0;" edge="1" parent="1" source="9sos-i2Oqbk3pr7V04AQ-14" target="9sos-i2Oqbk3pr7V04AQ-2">
          <mxGeometry width="50" height="50" relative="1" as="geometry">
            <mxPoint x="390" y="430" as="sourcePoint" />
            <mxPoint x="440" y="380" as="targetPoint" />
          </mxGeometry>
        </mxCell>
        <mxCell id="9sos-i2Oqbk3pr7V04AQ-18" value="" style="endArrow=none;html=1;rounded=0;entryX=0.275;entryY=0.925;entryDx=0;entryDy=0;exitX=0.5;exitY=0;exitDx=0;exitDy=0;entryPerimeter=0;" edge="1" parent="1" source="9sos-i2Oqbk3pr7V04AQ-4" target="9sos-i2Oqbk3pr7V04AQ-2">
          <mxGeometry width="50" height="50" relative="1" as="geometry">
            <mxPoint x="190" y="350" as="sourcePoint" />
            <mxPoint x="388" y="238" as="targetPoint" />
          </mxGeometry>
        </mxCell>
        <mxCell id="9sos-i2Oqbk3pr7V04AQ-19" value="" style="endArrow=none;html=1;rounded=0;entryX=0.5;entryY=1;entryDx=0;entryDy=0;" edge="1" parent="1" source="9sos-i2Oqbk3pr7V04AQ-5" target="9sos-i2Oqbk3pr7V04AQ-2">
          <mxGeometry width="50" height="50" relative="1" as="geometry">
            <mxPoint x="300" y="400" as="sourcePoint" />
            <mxPoint x="403" y="244" as="targetPoint" />
          </mxGeometry>
        </mxCell>
        <mxCell id="9sos-i2Oqbk3pr7V04AQ-20" value="" style="endArrow=none;html=1;rounded=0;entryX=1;entryY=1;entryDx=0;entryDy=0;exitX=0.5;exitY=0;exitDx=0;exitDy=0;" edge="1" parent="1" source="9sos-i2Oqbk3pr7V04AQ-9" target="9sos-i2Oqbk3pr7V04AQ-2">
          <mxGeometry width="50" height="50" relative="1" as="geometry">
            <mxPoint x="430" y="430" as="sourcePoint" />
            <mxPoint x="430" y="250" as="targetPoint" />
          </mxGeometry>
        </mxCell>
        <mxCell id="9sos-i2Oqbk3pr7V04AQ-21" value="" style="endArrow=none;html=1;rounded=0;entryX=0.992;entryY=0.6;entryDx=0;entryDy=0;entryPerimeter=0;" edge="1" parent="1" source="9sos-i2Oqbk3pr7V04AQ-7" target="9sos-i2Oqbk3pr7V04AQ-2">
          <mxGeometry width="50" height="50" relative="1" as="geometry">
            <mxPoint x="560" y="410" as="sourcePoint" />
            <mxPoint x="472" y="238" as="targetPoint" />
          </mxGeometry>
        </mxCell>
        <mxCell id="9sos-i2Oqbk3pr7V04AQ-22" value="" style="endArrow=none;html=1;rounded=0;exitX=0;exitY=0;exitDx=0;exitDy=0;entryX=0.95;entryY=0.338;entryDx=0;entryDy=0;entryPerimeter=0;" edge="1" parent="1" source="9sos-i2Oqbk3pr7V04AQ-8" target="9sos-i2Oqbk3pr7V04AQ-2">
          <mxGeometry width="50" height="50" relative="1" as="geometry">
            <mxPoint x="643" y="348" as="sourcePoint" />
            <mxPoint x="489" y="218" as="targetPoint" />
          </mxGeometry>
        </mxCell>
        <mxCell id="9sos-i2Oqbk3pr7V04AQ-23" value="" style="endArrow=none;html=1;rounded=0;entryX=1;entryY=1;entryDx=0;entryDy=0;exitX=0.5;exitY=0;exitDx=0;exitDy=0;" edge="1" parent="1" source="9sos-i2Oqbk3pr7V04AQ-13" target="9sos-i2Oqbk3pr7V04AQ-5">
          <mxGeometry width="50" height="50" relative="1" as="geometry">
            <mxPoint x="430" y="430" as="sourcePoint" />
            <mxPoint x="430" y="250" as="targetPoint" />
          </mxGeometry>
        </mxCell>
        <mxCell id="9sos-i2Oqbk3pr7V04AQ-24" value="" style="endArrow=none;html=1;rounded=0;exitX=0.5;exitY=0;exitDx=0;exitDy=0;" edge="1" parent="1" source="9sos-i2Oqbk3pr7V04AQ-12" target="9sos-i2Oqbk3pr7V04AQ-5">
          <mxGeometry width="50" height="50" relative="1" as="geometry">
            <mxPoint x="560" y="570" as="sourcePoint" />
            <mxPoint x="420" y="510" as="targetPoint" />
          </mxGeometry>
        </mxCell>
        <mxCell id="9sos-i2Oqbk3pr7V04AQ-25" value="" style="endArrow=none;html=1;rounded=0;entryX=0;entryY=1;entryDx=0;entryDy=0;" edge="1" parent="1" source="9sos-i2Oqbk3pr7V04AQ-11" target="9sos-i2Oqbk3pr7V04AQ-5">
          <mxGeometry width="50" height="50" relative="1" as="geometry">
            <mxPoint x="424" y="620" as="sourcePoint" />
            <mxPoint x="428" y="510" as="targetPoint" />
          </mxGeometry>
        </mxCell>
      </root>
    </mxGraphModel>
  </diagram>
</mxfile>
